<svg xmlns="http://www.w3.org/2000/svg" x="0px" y="0px"
width="64" height="64"
viewBox="0 0 64 64">
<path fill="#37d0ee" d="M54,10.5c0-0.69-0.28-1.32-0.73-1.77C52.82,8.28,52.19,8,51.5,8c-0.26,0-0.51,0.05-0.74,0.12	l-0.01-0.01C45.98,9.61,14.83,19.35,9.1,21.14l0.01,0.01C7.89,21.53,7,22.66,7,24c0,0.83,0.34,1.58,0.88,2.12l28,28	C36.42,54.66,37.17,55,38,55c1.34,0,2.47-0.89,2.85-2.11l0.01,0.01c1.79-5.73,11.53-36.88,13.03-41.65l-0.01-0.01	C53.95,11.01,54,10.76,54,10.5z"></path><ellipse cx="32" cy="61" opacity=".3" rx="19" ry="3"></ellipse><circle cx="19" cy="43" r="2" fill="#008aa9"></circle><path fill="#68e5fd" d="M53.27,8.73L21.88,40.12l-14-14C7.34,25.58,7,24.83,7,24c0-1.34,0.89-2.47,2.11-2.85L9.1,21.14	c5.73-1.79,36.88-11.53,41.65-13.03l0.01,0.01C50.99,8.05,51.24,8,51.5,8C52.19,8,52.82,8.28,53.27,8.73z"></path><polygon fill="#008aa9" points="17,43 17,35.239 49,13 26.759,45 19,45"></polygon><path d="M42.31,31.51c-2.01,6.43-4,12.78-5.23,16.74l-1.54-1.54c-1.96-1.96-5.11-1.96-7.07,0l7.41,7.41	C36.42,54.66,37.17,55,38,55c1.34,0,2.47-0.89,2.85-2.11l0.01,0.01c1.01-3.23,4.55-14.56,7.71-24.67	C45.93,27.4,43.13,28.87,42.31,31.51z" opacity=".15"></path><path fill="#fff" d="M46.77,9.36V9.35c-8.86,2.78-28.09,8.8-35.54,11.12v0.01c0.67,2.13,2.64,3.5,4.77,3.5	c0.49,0,1-0.07,1.49-0.22l26-8.14C46.13,14.8,47.6,11.99,46.77,9.36z" opacity=".3"></path><path fill="#fff" d="M19.499,23c-0.652,0-1.253-0.429-1.441-1.088c-0.228-0.797,0.233-1.627,1.03-1.854l7-2	c0.793-0.227,1.626,0.232,1.854,1.03c0.228,0.797-0.233,1.627-1.03,1.854l-7,2C19.774,22.981,19.636,23,19.499,23z"></path>
</svg>